<?xml version="1.0" encoding="UTF-8" standalone="no"?>
<!DOCTYPE svg PUBLIC "-//W3C//DTD SVG 1.1//EN" "http://www.w3.org/Graphics/SVG/1.1/DTD/svg11.dtd">
<svg width="100%" height="100%" viewBox="0 0 5906 3544" version="1.1" xmlns="http://www.w3.org/2000/svg" xmlns:xlink="http://www.w3.org/1999/xlink" xml:space="preserve" xmlns:serif="http://www.serif.com/" style="fill-rule:evenodd;clip-rule:evenodd;stroke-linejoin:round;stroke-miterlimit:2;">
    <g id="Image" transform="matrix(4.16667,0,0,4.16667,700.21,-482.461)">
        <path id="path1" d="M338.381,760.577C340.372,755.944 341.995,751.781 341.989,751.327C341.961,749.235 330.442,722.335 309.519,675.5C296.989,647.45 280,609.425 271.767,591C263.534,572.575 250.369,543.1 242.511,525.5C234.653,507.9 221.483,478.425 213.245,460C190.227,408.517 161.18,343.532 156.61,333.291C154.349,328.226 152.126,323.951 151.669,323.791C151.211,323.631 149.07,327.647 146.91,332.715L142.983,341.931L149.605,356.715C153.248,364.847 159.729,379.375 164.007,389C174.309,412.176 185.161,436.472 218.5,511C232.546,542.399 243.263,566.377 258.502,600.5C266.362,618.1 277.922,643.975 284.19,658C290.458,672.025 304.118,702.725 314.544,726.222C324.97,749.719 333.784,768.956 334.131,768.972C334.479,768.987 336.391,765.209 338.381,760.577ZM451.66,768.231C452.744,767.542 456.817,757.43 473.506,714C477.204,704.375 485.167,683.675 491.201,668C497.235,652.325 505.687,630.275 509.985,619C514.283,607.725 520.769,590.866 524.399,581.536C528.03,572.206 531,564.027 531,563.361C531,562.694 528.259,555.028 524.909,546.325C518.654,530.072 504.021,491.632 494.368,466.091C491.373,458.167 488.533,450.988 488.058,450.14C487.061,448.358 487.675,447.043 475.53,477C470.959,488.275 461.711,511 454.98,527.5C448.248,544 439.256,566.05 434.997,576.5C430.738,586.95 422.199,607.875 416.02,623C409.841,638.125 400.838,660.175 396.014,672C391.189,683.825 382.634,704.75 377.001,718.5C371.369,732.25 364.565,748.869 361.88,755.432C359.196,761.995 357,767.732 357,768.182C357,769.199 450.062,769.248 451.66,768.231ZM722.835,768.123C723.879,767.461 721.996,761.969 714.183,742.889C708.691,729.475 693.758,692.85 680.999,661.5C668.24,630.15 650.608,586.95 641.816,565.5C635.497,550.083 629.791,536.154 624.28,522.69C614.938,499.868 606.156,478.381 595.895,453.25C590.337,439.638 582.281,419.95 577.992,409.5C573.704,399.05 567.719,384.425 564.693,377C561.668,369.575 555.504,354.5 550.997,343.5C546.49,332.5 542.346,322.375 541.79,321C540.794,318.541 540.744,318.575 538.788,323C536.714,327.69 529.617,344.894 513.004,385.5C507.603,398.7 501.813,412.777 500.136,416.783L497.086,424.065L506.939,450.283C516.787,476.489 546.355,554.114 563.015,597.5C584.65,653.843 607.624,713.719 617.5,739.5C623.4,754.9 628.738,767.831 629.363,768.235C630.958,769.265 721.203,769.158 722.835,768.123ZM765.445,728.748C775.314,706.612 787.621,679.05 792.794,667.5C797.966,655.95 805.718,638.625 810.02,629C858.543,520.448 871.885,490.578 887.963,454.5C898.257,431.4 913.78,396.619 922.459,377.209L938.239,341.917L934.468,332.924C932.394,327.978 930.367,323.727 929.965,323.478C929.562,323.229 926.068,330.107 922.2,338.763C918.333,347.418 911.031,363.725 905.974,375C900.917,386.275 895.313,398.875 893.521,403C891.728,407.125 882.609,427.6 873.256,448.5C842.241,517.807 796.974,619.041 782.261,652C774.282,669.875 764.617,691.475 760.784,700C756.951,708.525 750.489,723.6 746.425,733.5L739.035,751.5L742.767,760.227C744.82,765.027 746.725,768.964 747,768.975C747.275,768.987 755.575,750.885 765.445,728.748ZM355.316,725.25C356.207,723.188 359.601,714.975 362.859,707C366.117,699.025 375.858,675.175 384.505,654C393.153,632.825 401.539,612.387 403.141,608.582L406.054,601.663L398.405,584.082C394.198,574.412 388.38,561.1 385.476,554.5C378.177,537.913 346.896,466.462 334.473,438C325.83,418.198 314.995,393.49 283.717,322.25L279.655,313L223.221,313C178.458,313 166.895,313.259 167.314,314.25C167.817,315.442 173.782,328.796 202.488,393C209.497,408.675 220.857,434.1 227.733,449.5C234.61,464.9 243.956,485.825 248.503,496C269.912,543.907 278.841,563.898 292.274,594C300.251,611.875 316.333,647.875 328.011,674C339.69,700.125 349.933,723.188 350.774,725.25C351.615,727.313 352.617,729 353,729C353.383,729 354.425,727.313 355.316,725.25ZM729.949,726.25C730.647,724.737 740.449,702.8 751.73,677.5C763.011,652.2 780.779,612.375 791.214,589C801.649,565.625 817.507,530.075 826.455,510C835.402,489.925 844.769,469 847.27,463.5C857.467,441.078 914,314.027 914,313.533C914,313.24 888.646,313 857.657,313L801.314,313L795.206,327.25C791.847,335.087 784.526,351.85 778.939,364.5C773.352,377.15 765.732,394.475 762.007,403C758.281,411.525 751.188,427.725 746.245,439C724.586,488.405 701.68,540.806 690.293,567C685.631,577.725 680.333,589.875 678.521,594C675.382,601.143 675.295,601.666 676.684,605C683.796,622.074 724.888,723.305 726.308,727.25C727.211,729.762 728.489,729.411 729.949,726.25Z" style="fill-rule:nonzero;"/>
    </g>
</svg>
